<svg version="1.1" viewBox="0.0 0.0 540.0 370.0" fill="none" stroke="none" stroke-linecap="square" stroke-miterlimit="10" xmlns:xlink="http://www.w3.org/1999/xlink" xmlns="http://www.w3.org/2000/svg"><clipPath id="p.0"><path d="m0 0l960.0 0l0 540.0l-960.0 0l0 -540.0z" clip-rule="nonzero"/></clipPath><g clip-path="url(#p.0)"><path fill="#000000" fill-opacity="0.0" d="m0 0l960.0 0l0 540.0l-960.0 0z" fill-rule="evenodd"/><path fill="#000000" fill-opacity="0.0" d="m227.3622 182.40158l82.645676 0" fill-rule="evenodd"/><path stroke="#595959" stroke-width="3.0" stroke-linejoin="round" stroke-linecap="butt" stroke-dasharray="3.0,9.0" d="m227.3622 182.40158l82.645676 0" fill-rule="evenodd"/><path fill="#ffffff" d="m6.9081364 289.22076l0 0c0 -7.7002563 6.2422857 -13.942535 13.942535 -13.942535l160.3039 0c3.6977997 0 7.2441406 1.4689331 9.858871 4.0836487c2.6147308 2.614746 4.083664 6.161072 4.083664 9.858887l0 55.768463c0 7.7002563 -6.242279 13.942535 -13.942535 13.942535l-160.3039 0c-7.7002497 0 -13.942535 -6.242279 -13.942535 -13.942535z" fill-rule="evenodd"/><path stroke="#d9d9d9" stroke-width="4.0" stroke-linejoin="round" stroke-linecap="butt" d="m6.9081364 289.22076l0 0c0 -7.7002563 6.2422857 -13.942535 13.942535 -13.942535l160.3039 0c3.6977997 0 7.2441406 1.4689331 9.858871 4.0836487c2.6147308 2.614746 4.083664 6.161072 4.083664 9.858887l0 55.768463c0 7.7002563 -6.242279 13.942535 -13.942535 13.942535l-160.3039 0c-7.7002497 0 -13.942535 -6.242279 -13.942535 -13.942535z" fill-rule="evenodd"/><path fill="#ffffff" d="m108.902885 289.22076l0 0c0 -7.7002563 6.2422867 -13.942535 13.942535 -13.942535l160.3039 0c3.6977844 0 7.2441406 1.4689331 9.858856 4.0836487c2.614746 2.614746 4.083679 6.161072 4.083679 9.858887l0 55.768463c0 7.7002563 -6.242279 13.942535 -13.942535 13.942535l-160.3039 0c-7.7002487 0 -13.942535 -6.242279 -13.942535 -13.942535z" fill-rule="evenodd"/><path stroke="#d9d9d9" stroke-width="4.0" stroke-linejoin="round" stroke-linecap="butt" d="m108.902885 289.22076l0 0c0 -7.7002563 6.2422867 -13.942535 13.942535 -13.942535l160.3039 0c3.6977844 0 7.2441406 1.4689331 9.858856 4.0836487c2.614746 2.614746 4.083679 6.161072 4.083679 9.858887l0 55.768463c0 7.7002563 -6.242279 13.942535 -13.942535 13.942535l-160.3039 0c-7.7002487 0 -13.942535 -6.242279 -13.942535 -13.942535z" fill-rule="evenodd"/><path fill="#ffffff" d="m6.9081364 324.07626l0 0c0 -3.8501282 3.1211433 -6.971283 6.9712677 -6.971283l397.42755 0c1.8489075 0 3.6220703 0.73446655 4.9294434 2.0418396c1.3073425 1.307373 2.0418396 3.080536 2.0418396 4.9294434l0 27.884216c0 3.8501282 -3.1211548 6.971283 -6.971283 6.971283l-397.42755 0l0 0c-3.8501244 0 -6.9712677 -3.1211548 -6.9712677 -6.971283z" fill-rule="evenodd"/><path stroke="#d9d9d9" stroke-width="4.0" stroke-linejoin="round" stroke-linecap="butt" d="m6.9081364 324.07626l0 0c0 -3.8501282 3.1211433 -6.971283 6.9712677 -6.971283l397.42755 0c1.8489075 0 3.6220703 0.73446655 4.9294434 2.0418396c1.3073425 1.307373 2.0418396 3.080536 2.0418396 4.9294434l0 27.884216c0 3.8501282 -3.1211548 6.971283 -6.971283 6.971283l-397.42755 0l0 0c-3.8501244 0 -6.9712677 -3.1211548 -6.9712677 -6.971283z" fill-rule="evenodd"/><path fill="#ed6a5e" d="m19.632545 296.6509l0 0c0 -4.2704163 3.4618626 -7.7322693 7.7322845 -7.7322693l0 0c2.0507278 0 4.0174656 0.81463623 5.4675484 2.26474c1.4500847 1.4500732 2.2647362 3.416809 2.2647362 5.4675293l0 0c0 4.2704163 -3.4618626 7.7323 -7.7322845 7.7323l0 0c-4.270422 0 -7.7322845 -3.4618835 -7.7322845 -7.7323z" fill-rule="evenodd"/><path fill="#f5bf4f" d="m43.811024 296.6509l0 0c0 -4.2704163 3.4618607 -7.7322693 7.7322845 -7.7322693l0 0c2.0507278 0 4.0174637 0.81463623 5.4675484 2.26474c1.4500847 1.4500732 2.2647324 3.416809 2.2647324 5.4675293l0 0c0 4.2704163 -3.4618607 7.7323 -7.7322807 7.7323l0 0c-4.270424 0 -7.7322845 -3.4618835 -7.7322845 -7.7323z" fill-rule="evenodd"/><path fill="#62b354" d="m67.9895 296.6509l0 0c0 -4.2704163 3.4618607 -7.7322693 7.7322845 -7.7322693l0 0c2.0507278 0 4.0174637 0.81463623 5.4675446 2.26474c1.4500885 1.4500732 2.26474 3.416809 2.26474 5.4675293l0 0c0 4.2704163 -3.4618607 7.7323 -7.7322845 7.7323l0 0c-4.270424 0 -7.7322845 -3.4618835 -7.7322845 -7.7323z" fill-rule="evenodd"/><path fill="#eeeeee" d="m125.35958 290.7061l0 0c0 -2.3613586 1.9142685 -4.275635 4.275627 -4.275635l146.72432 0c1.1339722 0 2.2214966 0.45046997 3.023346 1.2522888c0.80181885 0.80184937 1.2522888 1.8893738 1.2522888 3.023346l0 11.889679c0 2.3613586 -1.9142456 4.275635 -4.275635 4.275635l-146.72432 0c-2.3613586 0 -4.275627 -1.9142761 -4.275627 -4.275635z" fill-rule="evenodd"/><path fill="#000000" fill-opacity="0.0" d="m7.8162727 317.0971l411.37006 0l0 42.015747l-411.37006 0z" fill-rule="evenodd"/><path fill="#000000" d="m23.331898 333.61087q1.15625 0 2.078125 0.5q0.9375 0.484375 1.46875 1.484375q0.53125 0.984375 0.53125 2.390625l0 6.03125l-1.671875 0l0 -5.78125q0 -1.53125 -0.765625 -2.34375q-0.765625 -0.8125 -2.09375 -0.8125q-1.34375 0 -2.140625 0.84375q-0.78125 0.84375 -0.78125 2.4375l0 5.65625l-1.703125 0l0 -13.8125l1.703125 0l0 5.046875q0.5 -0.78125 1.375 -1.203125q0.890625 -0.4375 2.0 -0.4375zm8.924377 1.578125l0 6.03125q0 0.75 0.3125 1.0625q0.328125 0.296875 1.109375 0.296875l1.25 0l0 1.4375l-1.53125 0q-1.40625 0 -2.125 -0.65625q-0.703125 -0.65625 -0.703125 -2.140625l0 -6.03125l-1.328125 0l0 -1.390625l1.328125 0l0 -2.578125l1.6875 0l0 2.578125l2.671875 0l0 1.390625l-2.671875 0zm6.7908783 0l0 6.03125q0 0.75 0.3125 1.0625q0.328125 0.296875 1.109375 0.296875l1.25 0l0 1.4375l-1.53125 0q-1.40625 0 -2.125 -0.65625q-0.703125 -0.65625 -0.703125 -2.140625l0 -6.03125l-1.328125 0l0 -1.390625l1.328125 0l0 -2.578125l1.6875 0l0 2.578125l2.671875 0l0 1.390625l-2.671875 0zm6.4315033 0.484375q0.5 -0.875 1.5 -1.453125q1.0 -0.59375 2.3125 -0.59375q1.375 0 2.484375 0.65625q1.109375 0.65625 1.734375 1.84375q0.640625 1.171875 0.640625 2.734375q0 1.5625 -0.640625 2.78125q-0.625 1.203125 -1.734375 1.875q-1.109375 0.671875 -2.484375 0.671875q-1.296875 0 -2.296875 -0.578125q-1.0 -0.59375 -1.515625 -1.484375l0 6.734375l-1.703125 0l0 -15.0625l1.703125 0l0 1.875zm6.9375 3.1875q0 -1.15625 -0.46875 -2.0q-0.46875 -0.859375 -1.265625 -1.3125q-0.78125 -0.453125 -1.734375 -0.453125q-0.9375 0 -1.734375 0.46875q-0.796875 0.453125 -1.265625 1.328125q-0.46875 0.859375 -0.46875 2.0q0 1.15625 0.46875 2.03125q0.46875 0.859375 1.265625 1.3125q0.796875 0.453125 1.734375 0.453125q0.953125 0 1.734375 -0.453125q0.796875 -0.453125 1.265625 -1.3125q0.46875 -0.875 0.46875 -2.0625zm7.5960083 5.328125q-1.1875 0 -2.125 -0.40625q-0.921875 -0.40625 -1.46875 -1.125q-0.53125 -0.71875 -0.59375 -1.640625l1.75 0q0.078125 0.765625 0.71875 1.25q0.65625 0.484375 1.6875 0.484375q0.96875 0 1.53125 -0.421875q0.5625 -0.4375 0.5625 -1.09375q0 -0.671875 -0.59375 -1.0q-0.59375 -0.328125 -1.84375 -0.640625q-1.140625 -0.296875 -1.859375 -0.59375q-0.71875 -0.3125 -1.234375 -0.921875q-0.515625 -0.609375 -0.515625 -1.59375q0 -0.796875 0.46875 -1.4375q0.46875 -0.65625 1.328125 -1.03125q0.859375 -0.390625 1.953125 -0.390625q1.703125 0 2.75 0.859375q1.046875 0.859375 1.109375 2.34375l-1.6875 0q-0.0625 -0.796875 -0.65625 -1.28125q-0.578125 -0.484375 -1.5625 -0.484375q-0.921875 0 -1.46875 0.390625q-0.53125 0.390625 -0.53125 1.03125q0 0.5 0.328125 0.828125q0.328125 0.328125 0.8125 0.53125q0.5 0.1875 1.375 0.421875q1.109375 0.296875 1.796875 0.59375q0.6875 0.28125 1.171875 0.859375q0.5 0.578125 0.515625 1.515625q0 0.84375 -0.46875 1.515625q-0.453125 0.671875 -1.3125 1.0625q-0.84375 0.375 -1.9375 0.375zm6.66045 -0.0625q-0.484375 0 -0.828125 -0.328125q-0.328125 -0.34375 -0.328125 -0.828125q0 -0.484375 0.328125 -0.8125q0.34375 -0.34375 0.828125 -0.34375q0.453125 0 0.78125 0.34375q0.328125 0.328125 0.328125 0.8125q0 0.484375 -0.328125 0.828125q-0.328125 0.328125 -0.78125 0.328125zm0 -7.984375q-0.484375 0 -0.828125 -0.328125q-0.328125 -0.34375 -0.328125 -0.828125q0 -0.484375 0.328125 -0.8125q0.34375 -0.34375 0.828125 -0.34375q0.453125 0 0.78125 0.34375q0.328125 0.328125 0.328125 0.8125q0 0.484375 -0.328125 0.828125q-0.328125 0.328125 -0.78125 0.328125zm9.77066 -9.703125l-5.109375 20.75l-1.6875 0l5.09375 -20.75l1.703125 0zm8.880371 0l-5.109375 20.75l-1.6875 0l5.09375 -20.75l1.703125 0zm1.8959961 12.453125q0 -1.59375 0.640625 -2.765625q0.640625 -1.1875 1.765625 -1.84375q1.125 -0.65625 2.578125 -0.65625q1.890625 0 3.109375 0.921875q1.21875 0.90625 1.609375 2.53125l-1.828125 0q-0.265625 -0.9375 -1.015625 -1.46875q-0.75 -0.546875 -1.875 -0.546875q-1.453125 0 -2.359375 1.0q-0.890625 1.0 -0.890625 2.828125q0 1.84375 0.890625 2.859375q0.90625 1.0 2.359375 1.0q1.125 0 1.859375 -0.515625q0.75 -0.53125 1.03125 -1.5l1.828125 0q-0.40625 1.5625 -1.640625 2.515625q-1.234375 0.9375 -3.078125 0.9375q-1.453125 0 -2.578125 -0.65625q-1.125 -0.65625 -1.765625 -1.84375q-0.640625 -1.203125 -0.640625 -2.796875zm16.41809 5.296875q-1.4375 0 -2.609375 -0.65625q-1.15625 -0.65625 -1.828125 -1.859375q-0.65625 -1.203125 -0.65625 -2.78125q0 -1.578125 0.6875 -2.78125q0.6875 -1.203125 1.859375 -1.84375q1.171875 -0.640625 2.625 -0.640625q1.453125 0 2.625 0.640625q1.1875 0.640625 1.859375 1.84375q0.6875 1.1875 0.6875 2.78125q0 1.578125 -0.703125 2.78125q-0.703125 1.203125 -1.90625 1.859375q-1.1875 0.65625 -2.640625 0.65625zm0 -1.5q0.921875 0 1.71875 -0.421875q0.796875 -0.4375 1.296875 -1.296875q0.5 -0.859375 0.5 -2.078125q0 -1.234375 -0.484375 -2.09375q-0.484375 -0.859375 -1.28125 -1.28125q-0.78125 -0.421875 -1.6875 -0.421875q-0.9375 0 -1.71875 0.421875q-0.765625 0.421875 -1.234375 1.28125q-0.46875 0.859375 -0.46875 2.09375q0 1.25 0.453125 2.109375q0.46875 0.84375 1.234375 1.265625q0.765625 0.421875 1.671875 0.421875zm11.940002 1.5q-1.4375 0 -2.609375 -0.65625q-1.15625 -0.65625 -1.828125 -1.859375q-0.65625 -1.203125 -0.65625 -2.78125q0 -1.578125 0.6875 -2.78125q0.6875 -1.203125 1.859375 -1.84375q1.171875 -0.640625 2.625 -0.640625q1.453125 0 2.625 0.640625q1.1875 0.640625 1.859375 1.84375q0.6875 1.1875 0.6875 2.78125q0 1.578125 -0.703125 2.78125q-0.703125 1.203125 -1.90625 1.859375q-1.1875 0.65625 -2.640625 0.65625zm0 -1.5q0.921875 0 1.71875 -0.421875q0.796875 -0.4375 1.296875 -1.296875q0.5 -0.859375 0.5 -2.078125q0 -1.234375 -0.484375 -2.09375q-0.484375 -0.859375 -1.28125 -1.28125q-0.78125 -0.421875 -1.6875 -0.421875q-0.9375 0 -1.71875 0.421875q-0.765625 0.421875 -1.234375 1.28125q-0.46875 0.859375 -0.46875 2.09375q0 1.25 0.453125 2.109375q0.46875 0.84375 1.234375 1.265625q0.765625 0.421875 1.671875 0.421875zm9.190002 -12.484375l0 13.8125l-1.703125 0l0 -13.8125l1.703125 0zm6.511299 13.984375q-1.1875 0 -2.125 -0.40625q-0.921875 -0.40625 -1.4687424 -1.125q-0.53125 -0.71875 -0.59375 -1.640625l1.7499924 0q0.078125 0.765625 0.71875 1.25q0.65625 0.484375 1.6875 0.484375q0.96875 0 1.53125 -0.421875q0.5625 -0.4375 0.5625 -1.09375q0 -0.671875 -0.59375 -1.0q-0.59375 -0.328125 -1.84375 -0.640625q-1.140625 -0.296875 -1.859375 -0.59375q-0.71875 -0.3125 -1.2343674 -0.921875q-0.515625 -0.609375 -0.515625 -1.59375q0 -0.796875 0.46875 -1.4375q0.46874237 -0.65625 1.3281174 -1.03125q0.859375 -0.390625 1.953125 -0.390625q1.703125 0 2.75 0.859375q1.046875 0.859375 1.109375 2.34375l-1.6875 0q-0.0625 -0.796875 -0.65625 -1.28125q-0.578125 -0.484375 -1.5625 -0.484375q-0.921875 0 -1.46875 0.390625q-0.53125 0.390625 -0.53125 1.03125q0 0.5 0.328125 0.828125q0.328125 0.328125 0.8125 0.53125q0.5 0.1875 1.375 0.421875q1.109375 0.296875 1.796875 0.59375q0.6875 0.28125 1.171875 0.859375q0.5 0.578125 0.515625 1.515625q0 0.84375 -0.46875 1.515625q-0.453125 0.671875 -1.3125 1.0625q-0.84375 0.375 -1.9375 0.375zm6.988571 -12.0625q-0.484375 0 -0.828125 -0.328125q-0.328125 -0.34375 -0.328125 -0.828125q0 -0.484375 0.328125 -0.8125q0.34375 -0.34375 0.828125 -0.34375q0.46875 0 0.796875 0.34375q0.328125 0.328125 0.328125 0.8125q0 0.484375 -0.328125 0.828125q-0.328125 0.328125 -0.796875 0.328125zm0.828125 1.671875l0 10.21875l-1.703125 0l0 -10.21875l1.703125 0zm4.948807 1.390625l0 6.03125q0 0.75 0.3125 1.0625q0.328125 0.296875 1.109375 0.296875l1.25 0l0 1.4375l-1.53125 0q-1.40625 0 -2.125 -0.65625q-0.703125 -0.65625 -0.703125 -2.140625l0 -6.03125l-1.328125 0l0 -1.390625l1.328125 0l0 -2.578125l1.6875 0l0 2.578125l2.671875 0l0 1.390625l-2.671875 0zm14.056503 3.328125q0 0.484375 -0.0625 1.015625l-8.171875 0q0.09375 1.515625 1.03125 2.375q0.953125 0.84375 2.296875 0.84375q1.09375 0 1.828125 -0.515625q0.75 -0.515625 1.046875 -1.375l1.828125 0q-0.40625 1.484375 -1.640625 2.40625q-1.234375 0.921875 -3.0625 0.921875q-1.453125 0 -2.609375 -0.65625q-1.140625 -0.65625 -1.796875 -1.859375q-0.65625 -1.203125 -0.65625 -2.78125q0 -1.59375 0.640625 -2.78125q0.640625 -1.203125 1.78125 -1.84375q1.140625 -0.640625 2.640625 -0.640625q1.453125 0 2.5625 0.640625q1.125 0.625 1.734375 1.734375q0.609375 1.109375 0.609375 2.515625zm-1.75 -0.359375q0 -0.96875 -0.4375 -1.671875q-0.421875 -0.703125 -1.171875 -1.0625q-0.734375 -0.359375 -1.625 -0.359375q-1.28125 0 -2.1875 0.828125q-0.90625 0.8125 -1.03125 2.265625l6.453125 0zm4.5356293 5.96875q-0.484375 0 -0.828125 -0.328125q-0.328125 -0.34375 -0.328125 -0.828125q0 -0.484375 0.328125 -0.8125q0.34375 -0.34375 0.828125 -0.34375q0.453125 0 0.78125 0.34375q0.328125 0.328125 0.328125 0.8125q0 0.484375 -0.328125 0.828125q-0.328125 0.328125 -0.78125 0.328125zm2.7303162 -5.234375q0 -1.59375 0.640625 -2.765625q0.640625 -1.1875 1.765625 -1.84375q1.125 -0.65625 2.578125 -0.65625q1.890625 0 3.109375 0.921875q1.21875 0.90625 1.609375 2.53125l-1.828125 0q-0.265625 -0.9375 -1.015625 -1.46875q-0.75 -0.546875 -1.875 -0.546875q-1.453125 0 -2.359375 1.0q-0.890625 1.0 -0.890625 2.828125q0 1.84375 0.890625 2.859375q0.90625 1.0 2.359375 1.0q1.125 0 1.859375 -0.515625q0.75 -0.53125 1.03125 -1.5l1.828125 0q-0.40625 1.5625 -1.640625 2.515625q-1.234375 0.9375 -3.078125 0.9375q-1.453125 0 -2.578125 -0.65625q-1.125 -0.65625 -1.765625 -1.84375q-0.640625 -1.203125 -0.640625 -2.796875zm16.41809 5.296875q-1.4375 0 -2.609375 -0.65625q-1.15625 -0.65625 -1.828125 -1.859375q-0.65625 -1.203125 -0.65625 -2.78125q0 -1.578125 0.6875 -2.78125q0.6875 -1.203125 1.859375 -1.84375q1.171875 -0.640625 2.625 -0.640625q1.453125 0 2.625 0.640625q1.1875 0.640625 1.859375 1.84375q0.6875 1.1875 0.6875 2.78125q0 1.578125 -0.703125 2.78125q-0.703125 1.203125 -1.90625 1.859375q-1.1875 0.65625 -2.640625 0.65625zm0 -1.5q0.921875 0 1.71875 -0.421875q0.796875 -0.4375 1.296875 -1.296875q0.5 -0.859375 0.5 -2.078125q0 -1.234375 -0.484375 -2.09375q-0.484375 -0.859375 -1.28125 -1.28125q-0.78125 -0.421875 -1.6875 -0.421875q-0.9375 0 -1.71875 0.421875q-0.765625 0.421875 -1.234375 1.28125q-0.46875 0.859375 -0.46875 2.09375q0 1.25 0.453125 2.109375q0.46875 0.84375 1.234375 1.265625q0.765625 0.421875 1.671875 0.421875zm19.783752 -9.078125q1.1875 0 2.125 0.5q0.9375 0.484375 1.46875 1.484375q0.546875 0.984375 0.546875 2.390625l0 6.03125l-1.6875 0l0 -5.78125q0 -1.53125 -0.75 -2.34375q-0.75 -0.8125 -2.046875 -0.8125q-1.3125 0 -2.109375 0.859375q-0.78125 0.84375 -0.78125 2.4375l0 5.640625l-1.671875 0l0 -5.78125q0 -1.53125 -0.765625 -2.34375q-0.75 -0.8125 -2.03125 -0.8125q-1.328125 0 -2.109375 0.859375q-0.78125 0.84375 -0.78125 2.4375l0 5.640625l-1.703125 0l0 -10.21875l1.703125 0l0 1.46875q0.5 -0.796875 1.34375 -1.21875q0.84375 -0.4375 1.875 -0.4375q1.296875 0 2.28125 0.578125q0.984375 0.578125 1.46875 1.6875q0.4375 -1.078125 1.421875 -1.671875q0.984375 -0.59375 2.203125 -0.59375z" fill-rule="nonzero"/><path fill="#ffffff" d="m7.3622046 22.824427l0 0c0 -7.7002506 6.2422857 -13.942537 13.942536 -13.942537l160.3039 0c3.6977997 0 7.2441254 1.4689417 9.858871 4.0836744c2.6147308 2.6147327 4.083664 6.161071 4.083664 9.858863l0 55.76847c0 7.7002487 -6.242279 13.942535 -13.942535 13.942535l-160.3039 0c-7.7002506 0 -13.942536 -6.2422867 -13.942536 -13.942535z" fill-rule="evenodd"/><path stroke="#d9d9d9" stroke-width="4.0" stroke-linejoin="round" stroke-linecap="butt" d="m7.3622046 22.824427l0 0c0 -7.7002506 6.2422857 -13.942537 13.942536 -13.942537l160.3039 0c3.6977997 0 7.2441254 1.4689417 9.858871 4.0836744c2.6147308 2.6147327 4.083664 6.161071 4.083664 9.858863l0 55.76847c0 7.7002487 -6.242279 13.942535 -13.942535 13.942535l-160.3039 0c-7.7002506 0 -13.942536 -6.2422867 -13.942536 -13.942535z" fill-rule="evenodd"/><path fill="#ffffff" d="m109.35696 22.824427l0 0c0 -7.7002506 6.2422867 -13.942537 13.942535 -13.942537l160.3039 0c3.6977844 0 7.2441406 1.4689417 9.858856 4.0836744c2.614746 2.6147327 4.083679 6.161071 4.083679 9.858863l0 55.76847c0 7.7002487 -6.242279 13.942535 -13.942535 13.942535l-160.3039 0c-7.7002487 0 -13.942535 -6.2422867 -13.942535 -13.942535z" fill-rule="evenodd"/><path stroke="#d9d9d9" stroke-width="4.0" stroke-linejoin="round" stroke-linecap="butt" d="m109.35696 22.824427l0 0c0 -7.7002506 6.2422867 -13.942537 13.942535 -13.942537l160.3039 0c3.6977844 0 7.2441406 1.4689417 9.858856 4.0836744c2.614746 2.6147327 4.083679 6.161071 4.083679 9.858863l0 55.76847c0 7.7002487 -6.242279 13.942535 -13.942535 13.942535l-160.3039 0c-7.7002487 0 -13.942535 -6.2422867 -13.942535 -13.942535z" fill-rule="evenodd"/><path fill="#ffffff" d="m7.3622046 57.679928l0 0c0 -3.8501244 3.1211433 -6.9712677 6.9712687 -6.9712677l397.42755 0c1.8489075 0 3.6220703 0.73447037 4.9294434 2.0418396c1.3073425 1.3073654 2.041809 3.080536 2.041809 4.929428l0 27.884235c0 3.8501282 -3.1211243 6.9712677 -6.9712524 6.9712677l-397.42755 0l0 0c-3.8501253 0 -6.9712687 -3.1211395 -6.9712687 -6.9712677z" fill-rule="evenodd"/><path stroke="#d9d9d9" stroke-width="4.0" stroke-linejoin="round" stroke-linecap="butt" d="m7.3622046 57.679928l0 0c0 -3.8501244 3.1211433 -6.9712677 6.9712687 -6.9712677l397.42755 0c1.8489075 0 3.6220703 0.73447037 4.9294434 2.0418396c1.3073425 1.3073654 2.041809 3.080536 2.041809 4.929428l0 27.884235c0 3.8501282 -3.1211243 6.9712677 -6.9712524 6.9712677l-397.42755 0l0 0c-3.8501253 0 -6.9712687 -3.1211395 -6.9712687 -6.9712677z" fill-rule="evenodd"/><path fill="#ed6a5e" d="m20.086615 30.254593l0 0c0 -4.270422 3.4618607 -7.7322826 7.7322826 -7.7322826l0 0c2.0507298 0 4.0174656 0.8146477 5.467552 2.2647324c1.4500809 1.4500847 2.2647324 3.4168205 2.2647324 5.4675503l0 0c0 4.270424 -3.4618607 7.7322845 -7.7322845 7.7322845l0 0c-4.270422 0 -7.7322826 -3.4618607 -7.7322826 -7.7322845z" fill-rule="evenodd"/><path fill="#f5bf4f" d="m44.26509 30.254593l0 0c0 -4.270422 3.4618607 -7.7322826 7.7322845 -7.7322826l0 0c2.0507278 0 4.0174637 0.8146477 5.4675484 2.2647324c1.4500847 1.4500847 2.2647362 3.4168205 2.2647362 5.4675503l0 0c0 4.270424 -3.4618607 7.7322845 -7.7322845 7.7322845l0 0c-4.270424 0 -7.7322845 -3.4618607 -7.7322845 -7.7322845z" fill-rule="evenodd"/><path fill="#62b354" d="m68.44357 30.254593l0 0c0 -4.270422 3.4618607 -7.7322826 7.732277 -7.7322826l0 0c2.0507355 0 4.0174713 0.8146477 5.467552 2.2647324c1.4500885 1.4500847 2.2647324 3.4168205 2.2647324 5.4675503l0 0c0 4.270424 -3.4618607 7.7322845 -7.7322845 7.7322845l0 0c-4.2704163 0 -7.732277 -3.4618607 -7.732277 -7.7322845z" fill-rule="evenodd"/><path fill="#eeeeee" d="m125.81365 24.309753l0 0c0 -2.3613663 1.9142609 -4.275633 4.275627 -4.275633l146.72432 0c1.1339722 0 2.2214966 0.45046806 3.023346 1.2523041c0.80181885 0.801836 1.2522888 1.8893604 1.2522888 3.0233288l0 11.889679c0 2.3613663 -1.9142456 4.275635 -4.275635 4.275635l-146.72432 0c-2.3613663 0 -4.275627 -1.9142685 -4.275627 -4.275635z" fill-rule="evenodd"/><path fill="#000000" fill-opacity="0.0" d="m8.270341 50.700787l411.37006 0l0 42.01575l-411.37006 0z" fill-rule="evenodd"/><path fill="#000000" d="m28.707842 67.21454l0 10.40625l-3.1875 0l0 -1.421875q-0.484375 0.6875 -1.328125 1.109375q-0.828125 0.421875 -1.828125 0.421875q-1.1875 0 -2.109375 -0.53125q-0.90625 -0.53125 -1.421875 -1.53125q-0.5 -1.015625 -0.5 -2.375l0 -6.078125l3.171875 0l0 5.65625q0 1.03125 0.53125 1.609375q0.546875 0.578125 1.46875 0.578125q0.921875 0 1.46875 -0.578125q0.546875 -0.578125 0.546875 -1.609375l0 -5.65625l3.1875 0zm6.5274334 10.5625q-1.359375 0 -2.421875 -0.46875q-1.0624981 -0.46875 -1.6874981 -1.28125q-0.609375 -0.8125 -0.6875 -1.828125l3.156248 0q0.0625 0.546875 0.5 0.890625q0.453125 0.328125 1.109375 0.328125q0.59375 0 0.921875 -0.234375q0.328125 -0.234375 0.328125 -0.609375q0 -0.4375 -0.46875 -0.65625q-0.46875 -0.21875 -1.515625 -0.46875q-1.125 -0.265625 -1.875 -0.546875q-0.7343731 -0.296875 -1.2812481 -0.921875q-0.53125 -0.625 -0.53125 -1.6875q0 -0.90625 0.484375 -1.640625q0.5 -0.734375 1.4531231 -1.15625q0.96875 -0.4375 2.296875 -0.4375q1.953125 0 3.078125 0.96875q1.140625 0.96875 1.296875 2.578125l-2.9375 0q-0.078125 -0.546875 -0.484375 -0.859375q-0.390625 -0.3125 -1.046875 -0.3125q-0.5625 0 -0.859375 0.21875q-0.296875 0.203125 -0.296875 0.578125q0 0.453125 0.46875 0.671875q0.484375 0.21875 1.484375 0.453125q1.15625 0.296875 1.875 0.59375q0.734375 0.28125 1.28125 0.921875q0.5625 0.640625 0.578125 1.734375q0 0.90625 -0.515625 1.625q-0.515625 0.71875 -1.484375 1.140625q-0.953125 0.40625 -2.21875 0.40625zm15.988312 -5.53125q0 0.453125 -0.0625 0.9375l-7.21875 0q0.078125 0.96875 0.625 1.484375q0.5625 0.515625 1.359375 0.515625q1.1875 0 1.65625 -1.015625l3.40625 0q-0.265625 1.03125 -0.953125 1.859375q-0.671875 0.8125 -1.703125 1.28125q-1.03125 0.46875 -2.296875 0.46875q-1.53125 0 -2.734375 -0.65625q-1.1875 -0.65625 -1.859375 -1.859375q-0.671875 -1.21875 -0.671875 -2.84375q0 -1.625 0.65625 -2.828125q0.671875 -1.21875 1.859375 -1.875q1.203125 -0.65625 2.75 -0.65625q1.515625 0 2.6875 0.640625q1.171875 0.625 1.828125 1.8125q0.671875 1.171875 0.671875 2.734375zm-3.265625 -0.84375q0 -0.8125 -0.5625 -1.296875q-0.5625 -0.484375 -1.390625 -0.484375q-0.8125 0 -1.359375 0.46875q-0.546875 0.453125 -0.671875 1.3125l3.984375 0zm8.132874 -2.453125q0.5625 -0.859375 1.390625 -1.34375q0.84375 -0.5 1.875 -0.5l0 3.375l-0.875 0q-1.1875 0 -1.796875 0.515625q-0.59375 0.5 -0.59375 1.796875l0 4.828125l-3.1875 0l0 -10.40625l3.1875 0l0 1.734375zm11.141129 -1.84375q1.828125 0 2.921875 1.1875q1.09375 1.171875 1.09375 3.25l0 6.078125l-3.171875 0l0 -5.65625q0 -1.046875 -0.546875 -1.625q-0.546875 -0.578125 -1.453125 -0.578125q-0.921875 0 -1.46875 0.578125q-0.53125 0.578125 -0.53125 1.625l0 5.65625l-3.1875 0l0 -10.40625l3.1875 0l0 1.375q0.484375 -0.6875 1.296875 -1.078125q0.828125 -0.40625 1.859375 -0.40625zm5.5899353 5.296875q0 -1.609375 0.609375 -2.8125q0.609375 -1.21875 1.65625 -1.875q1.046875 -0.65625 2.328125 -0.65625q1.109375 0 1.9375 0.453125q0.828125 0.453125 1.28125 1.171875l0 -1.46875l3.1875 0l0 10.40625l-3.1875 0l0 -1.46875q-0.46875 0.71875 -1.3125 1.171875q-0.828125 0.453125 -1.921875 0.453125q-1.265625 0 -2.3125 -0.65625q-1.046875 -0.671875 -1.65625 -1.890625q-0.609375 -1.234375 -0.609375 -2.828125zm7.8125 0.015625q0 -1.203125 -0.671875 -1.890625q-0.65625 -0.6875 -1.609375 -0.6875q-0.953125 0 -1.625 0.6875q-0.65625 0.671875 -0.65625 1.875q0 1.1875 0.65625 1.890625q0.671875 0.703125 1.625 0.703125q0.953125 0 1.609375 -0.6875q0.671875 -0.703125 0.671875 -1.890625zm18.776978 -5.3125q1.9375 0 3.078125 1.171875q1.15625 1.171875 1.15625 3.265625l0 6.078125l-3.171875 0l0 -5.65625q0 -1.0 -0.53125 -1.546875q-0.53125 -0.5625 -1.46875 -0.5625q-0.921875 0 -1.453125 0.5625q-0.53125 0.546875 -0.53125 1.546875l0 5.65625l-3.171875 0l0 -5.65625q0 -1.0 -0.53125 -1.546875q-0.53125 -0.5625 -1.46875 -0.5625q-0.9375 0 -1.46875 0.5625q-0.53125 0.546875 -0.53125 1.546875l0 5.65625l-3.1875 0l0 -10.40625l3.1875 0l0 1.296875q0.484375 -0.640625 1.265625 -1.015625q0.796875 -0.390625 1.78125 -0.390625q1.171875 0 2.09375 0.5q0.921875 0.5 1.453125 1.4375q0.53125 -0.859375 1.46875 -1.390625q0.9375 -0.546875 2.03125 -0.546875zm16.288223 5.140625q0 0.453125 -0.0625 0.9375l-7.21875 0q0.078125 0.96875 0.625 1.484375q0.5625 0.515625 1.359375 0.515625q1.1875 0 1.65625 -1.015625l3.40625 0q-0.265625 1.03125 -0.953125 1.859375q-0.671875 0.8125 -1.703125 1.28125q-1.03125 0.46875 -2.296875 0.46875q-1.53125 0 -2.734375 -0.65625q-1.1875 -0.65625 -1.859375 -1.859375q-0.671875 -1.21875 -0.671875 -2.84375q0 -1.625 0.65625 -2.828125q0.671875 -1.21875 1.859375 -1.875q1.203125 -0.65625 2.75 -0.65625q1.515625 0 2.6875 0.640625q1.171875 0.625 1.828125 1.8125q0.671875 1.171875 0.671875 2.734375zm-3.265625 -0.84375q0 -0.8125 -0.5625 -1.296875q-0.5625 -0.484375 -1.390625 -0.484375q-0.8125 0 -1.359375 0.46875q-0.546875 0.453125 -0.671875 1.3125l3.984375 0zm6.4453735 6.375q-0.84375 0 -1.375 -0.5q-0.53125 -0.5 -0.53125 -1.21875q0 -0.75 0.53125 -1.25q0.53125 -0.515625 1.375 -0.515625q0.8125 0 1.34375 0.515625q0.53125 0.5 0.53125 1.25q0 0.71875 -0.53125 1.21875q-0.53125 0.5 -1.34375 0.5zm7.9954376 0q-1.359375 0 -2.421875 -0.46875q-1.0625 -0.46875 -1.6875 -1.28125q-0.609375 -0.8125 -0.6875 -1.828125l3.15625 0q0.0625 0.546875 0.5 0.890625q0.453125 0.328125 1.109375 0.328125q0.59375 0 0.921875 -0.234375q0.328125 -0.234375 0.328125 -0.609375q0 -0.4375 -0.46875 -0.65625q-0.46875 -0.21875 -1.515625 -0.46875q-1.125 -0.265625 -1.875 -0.546875q-0.734375 -0.296875 -1.28125 -0.921875q-0.53125 -0.625 -0.53125 -1.6875q0 -0.90625 0.484375 -1.640625q0.5 -0.734375 1.453125 -1.15625q0.96875 -0.4375 2.296875 -0.4375q1.953125 0 3.078125 0.96875q1.140625 0.96875 1.296875 2.578125l-2.9375 0q-0.078125 -0.546875 -0.484375 -0.859375q-0.390625 -0.3125 -1.046875 -0.3125q-0.5625 0 -0.859375 0.21875q-0.296875 0.203125 -0.296875 0.578125q0 0.453125 0.46875 0.671875q0.484375 0.21875 1.484375 0.453125q1.15625 0.296875 1.875 0.59375q0.734375 0.28125 1.28125 0.921875q0.5625 0.640625 0.578125 1.734375q0 0.90625 -0.515625 1.625q-0.515625 0.71875 -1.484375 1.140625q-0.953125 0.40625 -2.21875 0.40625zm21.113312 -10.5625l-2.8125 10.40625l-3.53125 0l-1.640625 -6.75l-1.6875 6.75l-3.515625 0l-2.828125 -10.40625l3.1875 0l1.46875 7.4375l1.765625 -7.4375l3.375 0l1.765625 7.40625l1.453125 -7.40625l3.0 0zm2.718811 10.5625q-0.84375 0 -1.375 -0.5q-0.53125 -0.5 -0.53125 -1.21875q0 -0.75 0.53125 -1.25q0.53125 -0.515625 1.375 -0.515625q0.8125 0 1.34375 0.515625q0.53125 0.5 0.53125 1.25q0 0.71875 -0.53125 1.21875q-0.53125 0.5 -1.34375 0.5zm5.3704376 -11.65625q-0.84375 0 -1.375 -0.484375q-0.53125 -0.5 -0.53125 -1.21875q0 -0.7500038 0.53125 -1.2343788q0.53125 -0.5 1.375 -0.5q0.8125 0 1.34375 0.5q0.53125 0.484375 0.53125 1.2343788q0 0.71875 -0.53125 1.21875q-0.53125 0.484375 -1.34375 0.484375zm1.578125 1.09375l0 10.40625l-3.1875 0l0 -10.40625l3.1875 0zm8.659851 -0.109375q1.828125 0 2.921875 1.1875q1.09375 1.171875 1.09375 3.25l0 6.078125l-3.171875 0l0 -5.65625q0 -1.046875 -0.546875 -1.625q-0.546875 -0.578125 -1.453125 -0.578125q-0.921875 0 -1.46875 0.578125q-0.53125 0.578125 -0.53125 1.625l0 5.65625l-3.1875 0l0 -10.40625l3.1875 0l0 1.375q0.484375 -0.6875 1.296875 -1.078125q0.828125 -0.40625 1.859375 -0.40625zm12.589935 10.515625l-3.171875 -4.359375l0 4.359375l-3.1875 0l0 -13.812504l3.1875 0l0 7.640629l3.15625 -4.234375l3.9375 0l-4.328125 5.21875l4.359375 5.1875l-3.953125 0zm12.279572 -17.718754l-5.0 21.203129l-3.078125 0l5.0 -21.203129l3.078125 0z" fill-rule="nonzero"/><path fill="#000000" d="m197.88611 67.21454q1.15625 0 2.078125 0.5q0.9375 0.484375 1.46875 1.484375q0.53125 0.984375 0.53125 2.390625l0 6.03125l-1.671875 0l0 -5.78125q0 -1.53125 -0.765625 -2.34375q-0.765625 -0.8125 -2.09375 -0.8125q-1.34375 0 -2.140625 0.84375q-0.78125 0.84375 -0.78125 2.4375l0 5.65625l-1.703125 0l0 -13.812504l1.703125 0l0 5.046879q0.5 -0.78125 1.375 -1.203125q0.890625 -0.4375 2.0 -0.4375zm8.924377 1.578125l0 6.03125q0 0.75 0.3125 1.0625q0.328125 0.296875 1.109375 0.296875l1.25 0l0 1.4375l-1.53125 0q-1.40625 0 -2.125 -0.65625q-0.703125 -0.65625 -0.703125 -2.140625l0 -6.03125l-1.328125 0l0 -1.390625l1.328125 0l0 -2.578125l1.6875 0l0 2.578125l2.671875 0l0 1.390625l-2.671875 0zm6.7908783 0l0 6.03125q0 0.75 0.3125 1.0625q0.328125 0.296875 1.109375 0.296875l1.25 0l0 1.4375l-1.53125 0q-1.40625 0 -2.125 -0.65625q-0.703125 -0.65625 -0.703125 -2.140625l0 -6.03125l-1.328125 0l0 -1.390625l1.328125 0l0 -2.578125l1.6875 0l0 2.578125l2.671875 0l0 1.390625l-2.671875 0zm6.4315033 0.484375q0.5 -0.875 1.5 -1.453125q1.0 -0.59375 2.3125 -0.59375q1.375 0 2.484375 0.65625q1.109375 0.65625 1.734375 1.84375q0.640625 1.171875 0.640625 2.734375q0 1.5625 -0.640625 2.78125q-0.625 1.203125 -1.734375 1.875q-1.109375 0.671875 -2.484375 0.671875q-1.296875 0 -2.296875 -0.578125q-1.0 -0.59375 -1.515625 -1.484375l0 6.734375l-1.703125 0l0 -15.0625l1.703125 0l0 1.875zm6.9375 3.1875q0 -1.15625 -0.46875 -2.0q-0.46875 -0.859375 -1.265625 -1.3125q-0.78125 -0.453125 -1.734375 -0.453125q-0.9375 0 -1.734375 0.46875q-0.796875 0.453125 -1.265625 1.328125q-0.46875 0.859375 -0.46875 2.0q0 1.15625 0.46875 2.03125q0.46875 0.859375 1.265625 1.3125q0.796875 0.453125 1.734375 0.453125q0.953125 0 1.734375 -0.453125q0.796875 -0.453125 1.265625 -1.3125q0.46875 -0.875 0.46875 -2.0625zm7.5960083 5.328125q-1.1875 0 -2.125 -0.40625q-0.921875 -0.40625 -1.46875 -1.125q-0.53125 -0.71875 -0.59375 -1.640625l1.75 0q0.078125 0.765625 0.71875 1.25q0.65625 0.484375 1.6875 0.484375q0.96875 0 1.53125 -0.421875q0.5625 -0.4375 0.5625 -1.09375q0 -0.671875 -0.59375 -1.0q-0.59375 -0.328125 -1.84375 -0.640625q-1.140625 -0.296875 -1.859375 -0.59375q-0.71875 -0.3125 -1.234375 -0.921875q-0.515625 -0.609375 -0.515625 -1.59375q0 -0.796875 0.46875 -1.4375q0.46875 -0.65625 1.328125 -1.03125q0.859375 -0.390625 1.953125 -0.390625q1.703125 0 2.75 0.859375q1.046875 0.859375 1.109375 2.34375l-1.6875 0q-0.0625 -0.796875 -0.65625 -1.28125q-0.578125 -0.484375 -1.5625 -0.484375q-0.921875 0 -1.46875 0.390625q-0.53125 0.390625 -0.53125 1.03125q0 0.5 0.328125 0.828125q0.328125 0.328125 0.8125 0.53125q0.5 0.1875 1.375 0.421875q1.109375 0.296875 1.796875 0.59375q0.6875 0.28125 1.171875 0.859375q0.5 0.578125 0.515625 1.515625q0 0.84375 -0.46875 1.515625q-0.453125 0.671875 -1.3125 1.0625q-0.84375 0.375 -1.9375 0.375zm6.660446 -0.0625q-0.484375 0 -0.828125 -0.328125q-0.328125 -0.34375 -0.328125 -0.828125q0 -0.484375 0.328125 -0.8125q0.34375 -0.34375 0.828125 -0.34375q0.453125 0 0.78125 0.34375q0.328125 0.328125 0.328125 0.8125q0 0.484375 -0.328125 0.828125q-0.328125 0.328125 -0.78125 0.328125zm0 -7.984375q-0.484375 0 -0.828125 -0.328125q-0.328125 -0.34375 -0.328125 -0.828125q0 -0.484375 0.328125 -0.8125q0.34375 -0.34375 0.828125 -0.34375q0.453125 0 0.78125 0.34375q0.328125 0.328125 0.328125 0.8125q0 0.484375 -0.328125 0.828125q-0.328125 0.328125 -0.78125 0.328125zm9.77066 -9.703129l-5.109375 20.750004l-1.6875 0l5.09375 -20.750004l1.703125 0zm8.880386 0l-5.1093903 20.750004l-1.6875 0l5.0937653 -20.750004l1.703125 0zm1.8959961 12.453129q0 -1.59375 0.640625 -2.765625q0.640625 -1.1875 1.765625 -1.84375q1.125 -0.65625 2.578125 -0.65625q1.890625 0 3.109375 0.921875q1.21875 0.90625 1.609375 2.53125l-1.828125 0q-0.265625 -0.9375 -1.015625 -1.46875q-0.75 -0.546875 -1.875 -0.546875q-1.453125 0 -2.359375 1.0q-0.890625 1.0 -0.890625 2.828125q0 1.84375 0.890625 2.859375q0.90625 1.0 2.359375 1.0q1.125 0 1.859375 -0.515625q0.75 -0.53125 1.03125 -1.5l1.828125 0q-0.40625 1.5625 -1.640625 2.515625q-1.234375 0.9375 -3.078125 0.9375q-1.453125 0 -2.578125 -0.65625q-1.125 -0.65625 -1.765625 -1.84375q-0.640625 -1.203125 -0.640625 -2.796875zm16.41809 5.296875q-1.4375 0 -2.609375 -0.65625q-1.15625 -0.65625 -1.828125 -1.859375q-0.65625 -1.203125 -0.65625 -2.78125q0 -1.578125 0.6875 -2.78125q0.6875 -1.203125 1.859375 -1.84375q1.171875 -0.640625 2.625 -0.640625q1.453125 0 2.625 0.640625q1.1875 0.640625 1.859375 1.84375q0.6875 1.1875 0.6875 2.78125q0 1.578125 -0.703125 2.78125q-0.703125 1.203125 -1.90625 1.859375q-1.1875 0.65625 -2.640625 0.65625zm0 -1.5q0.921875 0 1.71875 -0.421875q0.796875 -0.4375 1.296875 -1.296875q0.5 -0.859375 0.5 -2.078125q0 -1.234375 -0.484375 -2.09375q-0.484375 -0.859375 -1.28125 -1.28125q-0.78125 -0.421875 -1.6875 -0.421875q-0.9375 0 -1.71875 0.421875q-0.765625 0.421875 -1.234375 1.28125q-0.46875 0.859375 -0.46875 2.09375q0 1.25 0.453125 2.109375q0.46875 0.84375 1.234375 1.265625q0.765625 0.421875 1.671875 0.421875zm11.940002 1.5q-1.4375 0 -2.609375 -0.65625q-1.15625 -0.65625 -1.828125 -1.859375q-0.65625 -1.203125 -0.65625 -2.78125q0 -1.578125 0.6875 -2.78125q0.6875 -1.203125 1.859375 -1.84375q1.171875 -0.640625 2.625 -0.640625q1.453125 0 2.625 0.640625q1.1875 0.640625 1.859375 1.84375q0.6875 1.1875 0.6875 2.78125q0 1.578125 -0.703125 2.78125q-0.703125 1.203125 -1.90625 1.859375q-1.1875 0.65625 -2.640625 0.65625zm0 -1.5q0.921875 0 1.71875 -0.421875q0.796875 -0.4375 1.296875 -1.296875q0.5 -0.859375 0.5 -2.078125q0 -1.234375 -0.484375 -2.09375q-0.484375 -0.859375 -1.28125 -1.28125q-0.78125 -0.421875 -1.6875 -0.421875q-0.9375 0 -1.71875 0.421875q-0.765625 0.421875 -1.234375 1.28125q-0.46875 0.859375 -0.46875 2.09375q0 1.25 0.453125 2.109375q0.46875 0.84375 1.234375 1.265625q0.765625 0.421875 1.671875 0.421875zm9.190002 -12.484379l0 13.812504l-1.703125 0l0 -13.812504l1.703125 0zm6.511322 13.984379q-1.1875 0 -2.125 -0.40625q-0.921875 -0.40625 -1.46875 -1.125q-0.53125 -0.71875 -0.59375 -1.640625l1.75 0q0.078125 0.765625 0.71875 1.25q0.65625 0.484375 1.6875 0.484375q0.96875 0 1.53125 -0.421875q0.5625 -0.4375 0.5625 -1.09375q0 -0.671875 -0.59375 -1.0q-0.59375 -0.328125 -1.84375 -0.640625q-1.140625 -0.296875 -1.859375 -0.59375q-0.71875 -0.3125 -1.234375 -0.921875q-0.515625 -0.609375 -0.515625 -1.59375q0 -0.796875 0.46875 -1.4375q0.46875 -0.65625 1.328125 -1.03125q0.859375 -0.390625 1.953125 -0.390625q1.703125 0 2.75 0.859375q1.046875 0.859375 1.109375 2.34375l-1.6875 0q-0.0625 -0.796875 -0.65625 -1.28125q-0.578125 -0.484375 -1.5625 -0.484375q-0.921875 0 -1.46875 0.390625q-0.53125 0.390625 -0.53125 1.03125q0 0.5 0.328125 0.828125q0.328125 0.328125 0.8125 0.53125q0.5 0.1875 1.375 0.421875q1.109375 0.296875 1.796875 0.59375q0.6875 0.28125 1.171875 0.859375q0.5 0.578125 0.515625 1.515625q0 0.84375 -0.46875 1.515625q-0.453125 0.671875 -1.3125 1.0625q-0.84375 0.375 -1.9375 0.375zm6.988556 -12.0625q-0.484375 0 -0.828125 -0.328125q-0.328125 -0.34375 -0.328125 -0.828125q0 -0.484375 0.328125 -0.8125038q0.34375 -0.34375 0.828125 -0.34375q0.46875 0 0.796875 0.34375q0.328125 0.3281288 0.328125 0.8125038q0 0.484375 -0.328125 0.828125q-0.328125 0.328125 -0.796875 0.328125zm0.828125 1.671875l0 10.21875l-1.703125 0l0 -10.21875l1.703125 0zm4.948822 1.390625l0 6.03125q0 0.75 0.3125 1.0625q0.328125 0.296875 1.109375 0.296875l1.25 0l0 1.4375l-1.53125 0q-1.40625 0 -2.125 -0.65625q-0.703125 -0.65625 -0.703125 -2.140625l0 -6.03125l-1.328125 0l0 -1.390625l1.328125 0l0 -2.578125l1.6875 0l0 2.578125l2.671875 0l0 1.390625l-2.671875 0zm14.056488 3.328125q0 0.484375 -0.0625 1.015625l-8.171875 0q0.09375 1.515625 1.03125 2.375q0.953125 0.84375 2.296875 0.84375q1.09375 0 1.828125 -0.515625q0.75 -0.515625 1.046875 -1.375l1.828125 0q-0.40625 1.484375 -1.640625 2.40625q-1.234375 0.921875 -3.0625 0.921875q-1.453125 0 -2.609375 -0.65625q-1.140625 -0.65625 -1.796875 -1.859375q-0.65625 -1.203125 -0.65625 -2.78125q0 -1.59375 0.640625 -2.78125q0.640625 -1.203125 1.78125 -1.84375q1.140625 -0.640625 2.640625 -0.640625q1.453125 0 2.5625 0.640625q1.125 0.625 1.734375 1.734375q0.609375 1.109375 0.609375 2.515625zm-1.75 -0.359375q0 -0.96875 -0.4375 -1.671875q-0.421875 -0.703125 -1.171875 -1.0625q-0.734375 -0.359375 -1.625 -0.359375q-1.28125 0 -2.1875 0.828125q-0.90625 0.8125 -1.03125 2.265625l6.453125 0zm4.535614 5.96875q-0.484375 0 -0.828125 -0.328125q-0.328125 -0.34375 -0.328125 -0.828125q0 -0.484375 0.328125 -0.8125q0.34375 -0.34375 0.828125 -0.34375q0.453125 0 0.78125 0.34375q0.328125 0.328125 0.328125 0.8125q0 0.484375 -0.328125 0.828125q-0.328125 0.328125 -0.78125 0.328125zm2.7303467 -5.234375q0 -1.59375 0.640625 -2.765625q0.640625 -1.1875 1.765625 -1.84375q1.125 -0.65625 2.578125 -0.65625q1.890625 0 3.109375 0.921875q1.21875 0.90625 1.609375 2.53125l-1.828125 0q-0.265625 -0.9375 -1.015625 -1.46875q-0.75 -0.546875 -1.875 -0.546875q-1.453125 0 -2.359375 1.0q-0.890625 1.0 -0.890625 2.828125q0 1.84375 0.890625 2.859375q0.90625 1.0 2.359375 1.0q1.125 0 1.859375 -0.515625q0.75 -0.53125 1.03125 -1.5l1.828125 0q-0.40625 1.5625 -1.640625 2.515625q-1.234375 0.9375 -3.078125 0.9375q-1.453125 0 -2.578125 -0.65625q-1.125 -0.65625 -1.765625 -1.84375q-0.640625 -1.203125 -0.640625 -2.796875zm16.41809 5.296875q-1.4375 0 -2.609375 -0.65625q-1.15625 -0.65625 -1.828125 -1.859375q-0.65625 -1.203125 -0.65625 -2.78125q0 -1.578125 0.6875 -2.78125q0.6875 -1.203125 1.859375 -1.84375q1.171875 -0.640625 2.625 -0.640625q1.453125 0 2.625 0.640625q1.1875 0.640625 1.859375 1.84375q0.6875 1.1875 0.6875 2.78125q0 1.578125 -0.703125 2.78125q-0.703125 1.203125 -1.90625 1.859375q-1.1875 0.65625 -2.640625 0.65625zm0 -1.5q0.921875 0 1.71875 -0.421875q0.796875 -0.4375 1.296875 -1.296875q0.5 -0.859375 0.5 -2.078125q0 -1.234375 -0.484375 -2.09375q-0.484375 -0.859375 -1.28125 -1.28125q-0.78125 -0.421875 -1.6875 -0.421875q-0.9375 0 -1.71875 0.421875q-0.765625 0.421875 -1.234375 1.28125q-0.46875 0.859375 -0.46875 2.09375q0 1.25 0.453125 2.109375q0.46875 0.84375 1.234375 1.265625q0.765625 0.421875 1.671875 0.421875zm19.783752 -9.078125q1.1875 0 2.125 0.5q0.9375 0.484375 1.46875 1.484375q0.546875 0.984375 0.546875 2.390625l0 6.03125l-1.6875 0l0 -5.78125q0 -1.53125 -0.75 -2.34375q-0.75 -0.8125 -2.046875 -0.8125q-1.3125 0 -2.109375 0.859375q-0.78125 0.84375 -0.78125 2.4375l0 5.640625l-1.671875 0l0 -5.78125q0 -1.53125 -0.765625 -2.34375q-0.75 -0.8125 -2.03125 -0.8125q-1.328125 0 -2.109375 0.859375q-0.78125 0.84375 -0.78125 2.4375l0 5.640625l-1.703125 0l0 -10.21875l1.703125 0l0 1.46875q0.5 -0.796875 1.34375 -1.21875q0.84375 -0.4375 1.875 -0.4375q1.296875 0 2.28125 0.578125q0.984375 0.578125 1.46875 1.6875q0.4375 -1.078125 1.421875 -1.671875q0.984375 -0.59375 2.203125 -0.59375z" fill-rule="nonzero"/><path fill="#666666" d="m408.72702 61.622047l0 9.777557c0 4.391098 -3.5596619 7.9507904 -7.950775 7.9507904l-5.679138 0l0 2.2716522l-4.5433044 -4.5433044l4.5433044 -4.543312l0 2.2716522l5.679138 0l0 0c1.881897 0 3.4074707 -1.5255737 3.4074707 -3.4074783l0 -9.777557z" fill-rule="evenodd"/><path stroke="#666666" stroke-width="3.0" stroke-linejoin="round" stroke-linecap="butt" d="m408.72702 61.622047l0 9.777557c0 4.391098 -3.5596619 7.9507904 -7.950775 7.9507904l-5.679138 0l0 2.2716522l-4.5433044 -4.5433044l4.5433044 -4.543312l0 2.2716522l5.679138 0l0 0c1.881897 0 3.4074707 -1.5255737 3.4074707 -3.4074783l0 -9.777557z" fill-rule="evenodd"/><path fill="#ffffff" d="m287.02362 144.68018l0 0c0 -10.857468 8.801727 -19.65918 19.65918 -19.65918l207.04382 0c5.213928 0 10.214355 2.071228 13.901184 5.7580414c3.6867676 3.6868134 5.7579956 8.68721 5.7579956 13.901138l0 78.634384c0 10.857483 -8.801697 19.659195 -19.65918 19.659195l-207.04382 0c-10.857452 0 -19.65918 -8.801712 -19.65918 -19.659195z" fill-rule="evenodd"/><path stroke="#d9d9d9" stroke-width="4.0" stroke-linejoin="round" stroke-linecap="butt" d="m287.02362 144.68018l0 0c0 -10.857468 8.801727 -19.65918 19.65918 -19.65918l207.04382 0c5.213928 0 10.214355 2.071228 13.901184 5.7580414c3.6867676 3.6868134 5.7579956 8.68721 5.7579956 13.901138l0 78.634384c0 10.857483 -8.801697 19.659195 -19.65918 19.659195l-207.04382 0c-10.857452 0 -19.65918 -8.801712 -19.65918 -19.659195z" fill-rule="evenodd"/><path fill="#000000" fill-opacity="0.0" d="m296.10498 131.38321l163.62204 0l0 42.015747l-163.62204 0z" fill-rule="evenodd"/><path fill="#000000" d="m319.72998 145.39696l0 12.90625l-1.703125 0l0 -9.625l-4.28125 9.625l-1.203125 0l-4.296875 -9.640625l0 9.640625l-1.703125 0l0 -12.90625l1.828125 0l4.78125 10.671875l4.765625 -10.671875l1.8125 0zm11.688049 2.6875l-6.171875 15.03125l-1.75 0l2.015625 -4.921875l-4.125 -10.109375l1.890625 0l3.203125 8.28125l3.171875 -8.28125l1.765625 0zm10.29718 10.390625q-1.1875 0 -2.125 -0.40625q-0.921875 -0.40625 -1.46875 -1.125q-0.53125 -0.71875 -0.59375 -1.640625l1.75 0q0.078125 0.765625 0.71875 1.25q0.65625 0.484375 1.6875 0.484375q0.96875 0 1.53125 -0.421875q0.5625 -0.4375 0.5625 -1.09375q0 -0.671875 -0.59375 -1.0q-0.59375 -0.328125 -1.84375 -0.640625q-1.140625 -0.296875 -1.859375 -0.59375q-0.71875 -0.3125 -1.234375 -0.921875q-0.515625 -0.609375 -0.515625 -1.59375q0 -0.796875 0.46875 -1.4375q0.46875 -0.65625 1.328125 -1.03125q0.859375 -0.390625 1.953125 -0.390625q1.703125 0 2.75 0.859375q1.046875 0.859375 1.109375 2.34375l-1.6875 0q-0.0625 -0.796875 -0.65625 -1.28125q-0.578125 -0.484375 -1.5625 -0.484375q-0.921875 0 -1.46875 0.390625q-0.53125 0.390625 -0.53125 1.03125q0 0.5 0.328125 0.828125q0.328125 0.328125 0.8125 0.53125q0.5 0.1875 1.375 0.421875q1.109375 0.296875 1.796875 0.59375q0.6875 0.28125 1.171875 0.859375q0.5 0.578125 0.515625 1.515625q0 0.84375 -0.46875 1.515625q-0.453125 0.671875 -1.3125 1.0625q-0.84375 0.375 -1.9375 0.375zm19.738556 -10.390625l-3.203125 10.21875l-1.75 0l-2.453125 -8.109375l-2.46875 8.109375l-1.75 0l-3.21875 -10.21875l1.734375 0l2.359375 8.578125l2.53125 -8.578125l1.734375 0l2.484375 8.59375l2.3125 -8.59375l1.6875 0zm2.5481262 -1.671875q-0.484375 0 -0.828125 -0.328125q-0.328125 -0.34375 -0.328125 -0.828125q0 -0.484375 0.328125 -0.8125q0.34375 -0.34375 0.828125 -0.34375q0.46875 0 0.796875 0.34375q0.328125 0.328125 0.328125 0.8125q0 0.484375 -0.328125 0.828125q-0.328125 0.328125 -0.796875 0.328125zm0.828125 1.671875l0 10.21875l-1.703125 0l0 -10.21875l1.703125 0zm7.870697 -0.1875q1.859375 0 3.015625 1.125q1.15625 1.125 1.15625 3.25l0 6.03125l-1.671875 0l0 -5.78125q0 -1.53125 -0.765625 -2.34375q-0.765625 -0.8125 -2.09375 -0.8125q-1.34375 0 -2.140625 0.84375q-0.78125 0.84375 -0.78125 2.4375l0 5.65625l-1.703125 0l0 -10.21875l1.703125 0l0 1.453125q0.5 -0.78125 1.359375 -1.203125q0.875 -0.4375 1.921875 -0.4375zm12.658752 10.40625l-4.0 -4.515625l0 4.515625l-1.703125 0l0 -13.8125l1.703125 0l0 8.125l3.9375 -4.53125l2.359375 0l-4.8125 5.09375l4.828125 5.125l-2.3125 0zm7.529846 0.171875q-1.1875 0 -2.125 -0.40625q-0.921875 -0.40625 -1.46875 -1.125q-0.53125 -0.71875 -0.59375 -1.640625l1.75 0q0.078125 0.765625 0.71875 1.25q0.65625 0.484375 1.6875 0.484375q0.96875 0 1.53125 -0.421875q0.5625 -0.4375 0.5625 -1.09375q0 -0.671875 -0.59375 -1.0q-0.59375 -0.328125 -1.84375 -0.640625q-1.140625 -0.296875 -1.859375 -0.59375q-0.71875 -0.3125 -1.234375 -0.921875q-0.515625 -0.609375 -0.515625 -1.59375q0 -0.796875 0.46875 -1.4375q0.46875 -0.65625 1.328125 -1.03125q0.859375 -0.390625 1.953125 -0.390625q1.703125 0 2.75 0.859375q1.046875 0.859375 1.109375 2.34375l-1.6875 0q-0.0625 -0.796875 -0.65625 -1.28125q-0.578125 -0.484375 -1.5625 -0.484375q-0.921875 0 -1.46875 0.390625q-0.53125 0.390625 -0.53125 1.03125q0 0.5 0.328125 0.828125q0.328125 0.328125 0.8125 0.53125q0.5 0.1875 1.375 0.421875q1.109375 0.296875 1.796875 0.59375q0.6875 0.28125 1.171875 0.859375q0.5 0.578125 0.515625 1.515625q0 0.84375 -0.46875 1.515625q-0.453125 0.671875 -1.3125 1.0625q-0.84375 0.375 -1.9375 0.375z" fill-rule="nonzero"/><path fill="#eeeeee" d="m301.1811 176.5961l0 0c0 -2.9398804 2.3832703 -5.3231354 5.3231506 -5.3231354l208.81827 0c1.4118042 0 2.765747 0.5608368 3.764038 1.5591125c0.998291 0.99827576 1.5591431 2.352234 1.5591431 3.7640228l0 14.802551c0 2.9398804 -2.3832397 5.3231354 -5.323181 5.3231354l-208.81827 0c-2.9398804 0 -5.3231506 -2.383255 -5.3231506 -5.3231354z" fill-rule="evenodd"/><path fill="#d9ead3" d="m301.1811 210.77719l0 0c0 -2.9398804 2.3832703 -5.32312 5.3231506 -5.32312l208.81827 0c1.4118042 0 2.765747 0.56082153 3.764038 1.5591125c0.998291 0.99827576 1.5591431 2.352234 1.5591431 3.7640076l0 14.802567c0 2.9398804 -2.3832397 5.3231354 -5.323181 5.3231354l-208.81827 0c-2.9398804 0 -5.3231506 -2.383255 -5.3231506 -5.3231354z" fill-rule="evenodd"/><path fill="#000000" fill-opacity="0.0" d="m320.65878 197.97375l207.2756 0l0 40.409454l-207.2756 0z" fill-rule="evenodd"/><path fill="#000000" d="m335.70566 213.94188q1.078125 0 1.9375 0.46875q0.875 0.453125 1.359375 1.375q0.5 0.921875 0.5 2.234375l0 5.59375l-1.5625 0l0 -5.375q0 -1.421875 -0.71875 -2.171875q-0.703125 -0.75 -1.9375 -0.75q-1.234375 0 -1.984375 0.78125q-0.734375 0.78125 -0.734375 2.265625l0 5.25l-1.578125 0l0 -12.828125l1.578125 0l0 4.6875q0.46875 -0.734375 1.296875 -1.125q0.828125 -0.40625 1.84375 -0.40625zm8.29306 1.46875l0 5.609375q0 0.6875 0.296875 0.984375q0.296875 0.28125 1.03125 0.28125l1.15625 0l0 1.328125l-1.421875 0q-1.3125 0 -1.96875 -0.609375q-0.65625 -0.609375 -0.65625 -1.984375l0 -5.609375l-1.234375 0l0 -1.296875l1.234375 0l0 -2.390625l1.5625 0l0 2.390625l2.484375 0l0 1.296875l-2.484375 0zm6.3074036 0l0 5.609375q0 0.6875 0.296875 0.984375q0.296875 0.28125 1.03125 0.28125l1.15625 0l0 1.328125l-1.421875 0q-1.3125 0 -1.96875 -0.609375q-0.65625 -0.609375 -0.65625 -1.984375l0 -5.609375l-1.234375 0l0 -1.296875l1.234375 0l0 -2.390625l1.5625 0l0 2.390625l2.484375 0l0 1.296875l-2.484375 0zm5.9636536 0.453125q0.46875 -0.8125 1.390625 -1.359375q0.9375 -0.546875 2.171875 -0.546875q1.265625 0 2.296875 0.609375q1.03125 0.609375 1.609375 1.71875q0.59375 1.09375 0.59375 2.546875q0 1.4375 -0.59375 2.5625q-0.578125 1.125 -1.609375 1.75q-1.03125 0.625 -2.296875 0.625q-1.21875 0 -2.15625 -0.546875q-0.921875 -0.546875 -1.40625 -1.359375l0 6.25l-1.578125 0l0 -14.0l1.578125 0l0 1.75zm6.453125 2.96875q0 -1.078125 -0.4375 -1.875q-0.4375 -0.796875 -1.171875 -1.203125q-0.734375 -0.421875 -1.609375 -0.421875q-0.875 0 -1.609375 0.421875q-0.734375 0.421875 -1.1875 1.234375q-0.4375 0.796875 -0.4375 1.859375q0 1.078125 0.4375 1.890625q0.453125 0.796875 1.1875 1.21875q0.734375 0.421875 1.609375 0.421875q0.875 0 1.609375 -0.421875q0.734375 -0.421875 1.171875 -1.21875q0.4375 -0.8125 0.4375 -1.90625zm7.057495 4.9375q-1.09375 0 -1.96875 -0.375q-0.859375 -0.375 -1.375 -1.03125q-0.5 -0.671875 -0.546875 -1.546875l1.625 0q0.078125 0.71875 0.671875 1.171875q0.59375 0.453125 1.5625 0.453125q0.90625 0 1.421875 -0.390625q0.53125 -0.40625 0.53125 -1.015625q0 -0.625 -0.5625 -0.921875q-0.546875 -0.3125 -1.71875 -0.609375q-1.046875 -0.28125 -1.71875 -0.5625q-0.671875 -0.28125 -1.15625 -0.84375q-0.46875 -0.5625 -0.46875 -1.484375q0 -0.734375 0.4375 -1.328125q0.4375 -0.609375 1.234375 -0.96875q0.796875 -0.359375 1.8125 -0.359375q1.578125 0 2.546875 0.796875q0.96875 0.796875 1.046875 2.1875l-1.578125 0q-0.046875 -0.75 -0.59375 -1.1875q-0.546875 -0.453125 -1.46875 -0.453125q-0.84375 0 -1.359375 0.359375q-0.5 0.359375 -0.5 0.953125q0 0.46875 0.296875 0.78125q0.3125 0.296875 0.765625 0.484375q0.46875 0.171875 1.28125 0.390625q1.015625 0.28125 1.65625 0.5625q0.640625 0.265625 1.09375 0.796875q0.46875 0.53125 0.484375 1.40625q0 0.78125 -0.4375 1.40625q-0.421875 0.625 -1.21875 0.984375q-0.78125 0.34375 -1.796875 0.34375zm6.185852 -0.046875q-0.453125 0 -0.765625 -0.3125q-0.3125 -0.3125 -0.3125 -0.765625q0 -0.453125 0.3125 -0.765625q0.3125 -0.3125 0.765625 -0.3125q0.421875 0 0.71875 0.3125q0.3125 0.3125 0.3125 0.765625q0 0.453125 -0.3125 0.765625q-0.296875 0.3125 -0.71875 0.3125zm0 -7.421875q-0.453125 0 -0.765625 -0.3125q-0.3125 -0.3125 -0.3125 -0.765625q0 -0.453125 0.3125 -0.765625q0.3125 -0.3125 0.765625 -0.3125q0.421875 0 0.71875 0.3125q0.3125 0.3125 0.3125 0.765625q0 0.453125 -0.3125 0.765625q-0.296875 0.3125 -0.71875 0.3125zm9.065887 -9.015625l-4.734375 19.28125l-1.5625 0l4.734375 -19.28125l1.5625 0zm8.248138 0l-4.734375 19.28125l-1.5625 0l4.734375 -19.28125l1.5625 0zm1.7793884 11.5625q0 -1.46875 0.578125 -2.5625q0.59375 -1.109375 1.640625 -1.71875q1.046875 -0.609375 2.40625 -0.609375q1.75 0 2.875 0.859375q1.140625 0.84375 1.5 2.34375l-1.6875 0q-0.25 -0.859375 -0.953125 -1.359375q-0.703125 -0.5 -1.734375 -0.5q-1.359375 0 -2.1875 0.921875q-0.828125 0.921875 -0.828125 2.625q0 1.71875 0.828125 2.65625q0.828125 0.9375 2.1875 0.9375q1.03125 0 1.71875 -0.484375q0.703125 -0.5 0.96875 -1.390625l1.6875 0q-0.375 1.453125 -1.515625 2.328125q-1.140625 0.875 -2.859375 0.875q-1.359375 0 -2.40625 -0.609375q-1.046875 -0.609375 -1.640625 -1.71875q-0.578125 -1.109375 -0.578125 -2.59375zm15.236847 4.921875q-1.328125 0 -2.421875 -0.609375q-1.078125 -0.609375 -1.6875 -1.71875q-0.609375 -1.125 -0.609375 -2.59375q0 -1.453125 0.625 -2.5625q0.640625 -1.125 1.71875 -1.71875q1.09375 -0.609375 2.453125 -0.609375q1.34375 0 2.4375 0.609375q1.09375 0.59375 1.71875 1.703125q0.640625 1.109375 0.640625 2.578125q0 1.46875 -0.65625 2.59375q-0.640625 1.109375 -1.75 1.71875q-1.109375 0.609375 -2.46875 0.609375zm0 -1.390625q0.859375 0 1.59375 -0.390625q0.75 -0.40625 1.203125 -1.203125q0.46875 -0.796875 0.46875 -1.9375q0 -1.140625 -0.453125 -1.9375q-0.453125 -0.796875 -1.1875 -1.1875q-0.71875 -0.390625 -1.5625 -0.390625q-0.875 0 -1.59375 0.390625q-0.71875 0.390625 -1.15625 1.1875q-0.421875 0.796875 -0.421875 1.9375q0 1.15625 0.421875 1.953125q0.421875 0.796875 1.125 1.1875q0.71875 0.390625 1.5625 0.390625zm11.089935 1.390625q-1.328125 0 -2.421875 -0.609375q-1.078125 -0.609375 -1.6875 -1.71875q-0.609375 -1.125 -0.609375 -2.59375q0 -1.453125 0.625 -2.5625q0.640625 -1.125 1.71875 -1.71875q1.09375 -0.609375 2.453125 -0.609375q1.34375 0 2.4375 0.609375q1.09375 0.59375 1.71875 1.703125q0.640625 1.109375 0.640625 2.578125q0 1.46875 -0.65625 2.59375q-0.640625 1.109375 -1.75 1.71875q-1.109375 0.609375 -2.46875 0.609375zm0 -1.390625q0.859375 0 1.59375 -0.390625q0.75 -0.40625 1.203125 -1.203125q0.46875 -0.796875 0.46875 -1.9375q0 -1.140625 -0.453125 -1.9375q-0.453125 -0.796875 -1.1875 -1.1875q-0.71875 -0.390625 -1.5625 -0.390625q-0.875 0 -1.59375 0.390625q-0.71875 0.390625 -1.15625 1.1875q-0.421875 0.796875 -0.421875 1.9375q0 1.15625 0.421875 1.953125q0.421875 0.796875 1.125 1.1875q0.71875 0.390625 1.5625 0.390625zm8.527435 -11.59375l0 12.828125l-1.578125 0l0 -12.828125l1.578125 0zm6.0595703 12.984375q-1.09375 0 -1.96875 -0.375q-0.859375 -0.375 -1.375 -1.03125q-0.5 -0.671875 -0.546875 -1.546875l1.625 0q0.078125 0.71875 0.671875 1.171875q0.59375 0.453125 1.5625 0.453125q0.90625 0 1.421875 -0.390625q0.53125 -0.40625 0.53125 -1.015625q0 -0.625 -0.5625 -0.921875q-0.546875 -0.3125 -1.71875 -0.609375q-1.046875 -0.28125 -1.71875 -0.5625q-0.671875 -0.28125 -1.15625 -0.84375q-0.46875 -0.5625 -0.46875 -1.484375q0 -0.734375 0.4375 -1.328125q0.4375 -0.609375 1.234375 -0.96875q0.796875 -0.359375 1.8125 -0.359375q1.578125 0 2.546875 0.796875q0.96875 0.796875 1.046875 2.1875l-1.578125 0q-0.046875 -0.75 -0.59375 -1.1875q-0.546875 -0.453125 -1.46875 -0.453125q-0.84375 0 -1.359375 0.359375q-0.5 0.359375 -0.5 0.953125q0 0.46875 0.296875 0.78125q0.3125 0.296875 0.765625 0.484375q0.46875 0.171875 1.28125 0.390625q1.015625 0.28125 1.65625 0.5625q0.640625 0.265625 1.09375 0.796875q0.46875 0.53125 0.484375 1.40625q0 0.78125 -0.4375 1.40625q-0.421875 0.625 -1.21875 0.984375q-0.78125 0.34375 -1.796875 0.34375zm6.498352 -11.1875q-0.453125 0 -0.765625 -0.3125q-0.3125 -0.3125 -0.3125 -0.765625q0 -0.453125 0.3125 -0.765625q0.3125 -0.3125 0.765625 -0.3125q0.421875 0 0.71875 0.3125q0.3125 0.3125 0.3125 0.765625q0 0.453125 -0.3125 0.765625q-0.296875 0.3125 -0.71875 0.3125zm0.75 1.53125l0 9.5l-1.578125 0l0 -9.5l1.578125 0zm4.6064453 1.296875l0 5.609375q0 0.6875 0.296875 0.984375q0.296875 0.28125 1.03125 0.28125l1.15625 0l0 1.328125l-1.421875 0q-1.3125 0 -1.96875 -0.609375q-0.65625 -0.609375 -0.65625 -1.984375l0 -5.609375l-1.234375 0l0 -1.296875l1.234375 0l0 -2.390625l1.5625 0l0 2.390625l2.484375 0l0 1.296875l-2.484375 0zm13.057404 3.09375q0 0.453125 -0.046875 0.953125l-7.59375 0q0.078125 1.40625 0.953125 2.203125q0.875 0.78125 2.125 0.78125q1.03125 0 1.703125 -0.46875q0.6875 -0.484375 0.96875 -1.28125l1.703125 0q-0.390625 1.359375 -1.53125 2.21875q-1.140625 0.859375 -2.84375 0.859375q-1.34375 0 -2.421875 -0.609375q-1.0625 -0.609375 -1.671875 -1.71875q-0.59375 -1.125 -0.59375 -2.59375q0 -1.46875 0.578125 -2.578125q0.59375 -1.109375 1.65625 -1.703125q1.078125 -0.609375 2.453125 -0.609375q1.359375 0 2.390625 0.59375q1.046875 0.59375 1.609375 1.625q0.5625 1.03125 0.5625 2.328125zm-1.625 -0.328125q0 -0.90625 -0.40625 -1.546875q-0.390625 -0.65625 -1.078125 -0.984375q-0.6875 -0.34375 -1.515625 -0.34375q-1.203125 0 -2.046875 0.765625q-0.828125 0.75 -0.953125 2.109375l6.0 0zm4.2121277 5.546875q-0.453125 0 -0.765625 -0.3125q-0.3125 -0.3125 -0.3125 -0.765625q0 -0.453125 0.3125 -0.765625q0.3125 -0.3125 0.765625 -0.3125q0.421875 0 0.71875 0.3125q0.3125 0.3125 0.3125 0.765625q0 0.453125 -0.3125 0.765625q-0.296875 0.3125 -0.71875 0.3125zm2.5451355 -4.875q0 -1.46875 0.578125 -2.5625q0.59375 -1.109375 1.640625 -1.71875q1.046875 -0.609375 2.40625 -0.609375q1.75 0 2.875 0.859375q1.140625 0.84375 1.5 2.34375l-1.6875 0q-0.25 -0.859375 -0.953125 -1.359375q-0.703125 -0.5 -1.734375 -0.5q-1.359375 0 -2.1875 0.921875q-0.828125 0.921875 -0.828125 2.625q0 1.71875 0.828125 2.65625q0.828125 0.9375 2.1875 0.9375q1.03125 0 1.71875 -0.484375q0.703125 -0.5 0.96875 -1.390625l1.6875 0q-0.375 1.453125 -1.515625 2.328125q-1.140625 0.875 -2.859375 0.875q-1.359375 0 -2.40625 -0.609375q-1.046875 -0.609375 -1.640625 -1.71875q-0.578125 -1.109375 -0.578125 -2.59375zm15.236877 4.921875q-1.328125 0 -2.421875 -0.609375q-1.078125 -0.609375 -1.6875 -1.71875q-0.609375 -1.125 -0.609375 -2.59375q0 -1.453125 0.625 -2.5625q0.640625 -1.125 1.71875 -1.71875q1.09375 -0.609375 2.453125 -0.609375q1.34375 0 2.4375 0.609375q1.09375 0.59375 1.71875 1.703125q0.640625 1.109375 0.640625 2.578125q0 1.46875 -0.65625 2.59375q-0.640625 1.109375 -1.75 1.71875q-1.109375 0.609375 -2.46875 0.609375zm0 -1.390625q0.859375 0 1.59375 -0.390625q0.75 -0.40625 1.203125 -1.203125q0.46875 -0.796875 0.46875 -1.9375q0 -1.140625 -0.453125 -1.9375q-0.453125 -0.796875 -1.1875 -1.1875q-0.71875 -0.390625 -1.5625 -0.390625q-0.875 0 -1.59375 0.390625q-0.71875 0.390625 -1.15625 1.1875q-0.421875 0.796875 -0.421875 1.9375q0 1.15625 0.421875 1.953125q0.421875 0.796875 1.125 1.1875q0.71875 0.390625 1.5625 0.390625zm18.371185 -8.4375q1.109375 0 1.96875 0.46875q0.875 0.453125 1.375 1.375q0.5 0.921875 0.5 2.234375l0 5.59375l-1.546875 0l0 -5.375q0 -1.421875 -0.703125 -2.171875q-0.703125 -0.75 -1.90625 -0.75q-1.21875 0 -1.953125 0.796875q-0.734375 0.78125 -0.734375 2.265625l0 5.234375l-1.546875 0l0 -5.375q0 -1.421875 -0.703125 -2.171875q-0.703125 -0.75 -1.90625 -0.75q-1.234375 0 -1.96875 0.796875q-0.71875 0.78125 -0.71875 2.265625l0 5.234375l-1.578125 0l0 -9.5l1.578125 0l0 1.375q0.46875 -0.75 1.25 -1.140625q0.796875 -0.40625 1.75 -0.40625q1.203125 0 2.109375 0.546875q0.921875 0.53125 1.375 1.5625q0.40625 -1.0 1.3125 -1.546875q0.921875 -0.5625 2.046875 -0.5625z" fill-rule="nonzero"/><path fill="#62b354" d="m312.0577 216.35985l3.8638306 0l0 -3.8638306l3.6372375 0l0 3.8638306l3.8638306 0l0 3.637268l-3.8638306 0l0 3.8638153l-3.6372375 0l0 -3.8638153l-3.8638306 0z" fill-rule="evenodd"/><path fill="#000000" fill-opacity="0.0" d="m217.56915 101.73451l4.929291 46.79799l-8.344315 2.991562l10.999802 42.020096l-8.643738 4.049301l9.133408 67.72493l-31.356674 -58.798553l10.291199 -4.0159454l-19.231659 -37.421066l12.483124 -6.344986l-20.362335 -39.30938z" fill-rule="evenodd"/><path stroke="#d9d9d9" stroke-width="4.0" stroke-linejoin="round" stroke-linecap="butt" d="m217.56915 101.73451l4.929291 46.79799l-8.344315 2.991562l10.999802 42.020096l-8.643738 4.049301l9.133408 67.72493l-31.356674 -58.798553l10.291199 -4.0159454l-19.231659 -37.421066l12.483124 -6.344986l-20.362335 -39.30938z" fill-rule="evenodd"/></g></svg>